<?xml version="1.0" encoding="UTF-8"?>
<svg height="128px" viewBox="0 0 128 128" width="128px" xmlns="http://www.w3.org/2000/svg" xmlns:xlink="http://www.w3.org/1999/xlink">
    <linearGradient id="a" gradientTransform="matrix(0.232143 0 0 0.328947 -8.58254 263.826965)" gradientUnits="userSpaceOnUse" x1="88.595886" x2="536.595886" y1="-449.394012" y2="-449.394012">
        <stop offset="0" stop-color="#77767b"/>
        <stop offset="0.0384615" stop-color="#c0bfbc"/>
        <stop offset="0.0768555" stop-color="#9a9996"/>
        <stop offset="0.923077" stop-color="#9a9996"/>
        <stop offset="0.961538" stop-color="#c0bfbc"/>
        <stop offset="1" stop-color="#77767b"/>
    </linearGradient>
    <path d="m 19.984375 16 h 88 c 4.417969 0 8 3.582031 8 8 v 84 c 0 4.417969 -3.582031 8 -8 8 h -88 c -4.417969 0 -8 -3.582031 -8 -8 v -84 c 0 -4.417969 3.582031 -8 8 -8 z m 0 0" fill="url(#a)"/>
    <path d="m 20 12 h 88 c 4.417969 0 8 3.582031 8 8 v 84 c 0 4.417969 -3.582031 8 -8 8 h -88 c -4.417969 0 -8 -3.582031 -8 -8 v -84 c 0 -4.417969 3.582031 -8 8 -8 z m 0 0" fill="#deddda"/>
    <path d="m 23.382812 16 h 81.234376 c 4.078124 0 7.382812 3.296875 7.382812 7.359375 v 77.28125 c 0 4.0625 -3.304688 7.359375 -7.382812 7.359375 h -81.234376 c -4.078124 0 -7.382812 -3.296875 -7.382812 -7.359375 v -77.28125 c 0 -4.0625 3.304688 -7.359375 7.382812 -7.359375 z m 0 0" fill="#4f4f4f"/>
    <g stroke-width="3.77953">
        <path d="m 56.875 67.785156 l 15.925781 -2.398437" fill="#ff0000" stroke="#ffffff"/>
        <path d="m 80.066406 81.261719 v -10.695313" fill="none" stroke="#ffffff"/>
        <path d="m 55.515625 74.152344 l 18.230469 10.105468" fill="none" stroke="#ffffff"/>
        <path d="m 57.140625 69.058594 c 0 5.089844 -4.121094 9.210937 -9.207031 9.210937 c -5.089844 0 -9.210938 -4.121093 -9.210938 -9.210937 c 0 -5.085938 4.121094 -9.207032 9.210938 -9.207032 c 5.085937 0 9.207031 4.121094 9.207031 9.207032 z m 0 0" fill="#4f4f4f" stroke="#009ccd"/>
        <path d="m 87.4375 63.242188 c 0 4.070312 -3.300781 7.367187 -7.371094 7.367187 c -4.066406 0 -7.367187 -3.296875 -7.367187 -7.367187 c 0 -4.070313 3.300781 -7.367188 7.367187 -7.367188 c 4.070313 0 7.371094 3.296875 7.371094 7.367188 z m 0 0" fill="#4f4f4f" stroke="#89e777"/>
        <path d="m 89.277344 90.394531 c 0 5.085938 -4.121094 9.207031 -9.210938 9.207031 c -5.085937 0 -9.207031 -4.121093 -9.207031 -9.207031 c 0 -5.085937 4.121094 -9.210937 9.207031 -9.210937 c 5.089844 0 9.210938 4.125 9.210938 9.210937 z m 0 0" fill="#4f4f4f" stroke="#fc7474"/>
        <path d="m 82.007813 90.394531 c 0 1.070313 -0.867188 1.9375 -1.941407 1.9375 c -1.070312 0 -1.9375 -0.867187 -1.9375 -1.9375 c 0 -1.074219 0.867188 -1.941406 1.9375 -1.941406 c 1.074219 0 1.941407 0.867187 1.941407 1.941406 z m 0 0" fill="#ffffff" stroke="#ffffff"/>
    </g>
    <path d="m 25.882812 41.207031 l 14.078126 -5.863281 l -14.078126 -6.683594 v -2.910156 l 17.585938 8.773438 v 1.867187 l -17.585938 7.726563 z m 0 0" fill="#ffffff"/>
    <path d="m 62.195312 48.507812 h -16.726562 v -2.390624 h 16.726562 z m 0 0" fill="#ffffff"/>
</svg>
