<?xml version="1.0" encoding="UTF-8"?>
<svg height="128px" viewBox="0 0 128 128" width="128px" xmlns="http://www.w3.org/2000/svg" xmlns:xlink="http://www.w3.org/1999/xlink">
    <filter id="a" height="100%" width="100%" x="0%" y="0%">
        <feColorMatrix color-interpolation-filters="sRGB" values="0 0 0 0 1 0 0 0 0 1 0 0 0 0 1 0 0 0 1 0"/>
    </filter>
    <linearGradient id="b" gradientTransform="matrix(0.232143 0 0 0.328947 -8.58254 263.826965)" gradientUnits="userSpaceOnUse" x1="88.595886" x2="536.595886" y1="-449.394012" y2="-449.394012">
        <stop offset="0" stop-color="#77767b"/>
        <stop offset="0.0384615" stop-color="#c0bfbc"/>
        <stop offset="0.0768555" stop-color="#9a9996"/>
        <stop offset="0.923077" stop-color="#9a9996"/>
        <stop offset="0.961538" stop-color="#c0bfbc"/>
        <stop offset="1" stop-color="#77767b"/>
    </linearGradient>
    <clipPath id="c">
        <rect height="128" width="128"/>
    </clipPath>
    <clipPath id="d">
        <rect height="128" width="128"/>
    </clipPath>
    <mask id="e">
        <g filter="url(#a)">
            <g clip-path="url(#d)" filter="url(#a)">
                <g clip-path="url(#c)">
                    <path d="m 19.984375 16 h 88 c 4.417969 0 8 3.582031 8 8 v 84 c 0 4.417969 -3.582031 8 -8 8 h -88 c -4.417969 0 -8 -3.582031 -8 -8 v -84 c 0 -4.417969 3.582031 -8 8 -8 z m 0 0" fill="url(#b)"/>
                    <path d="m 20 12 h 88 c 4.417969 0 8 3.582031 8 8 v 84 c 0 4.417969 -3.582031 8 -8 8 h -88 c -4.417969 0 -8 -3.582031 -8 -8 v -84 c 0 -4.417969 3.582031 -8 8 -8 z m 0 0" fill="#deddda"/>
                    <path d="m 23.441406 15.988281 h 81.25 c 4.078125 0 7.386719 3.296875 7.386719 7.363281 v 77.296876 c 0 4.066406 -3.308594 7.363281 -7.386719 7.363281 h -81.25 c -4.082031 0 -7.386718 -3.296875 -7.386718 -7.363281 v -77.296876 c 0 -4.066406 3.304687 -7.363281 7.386718 -7.363281 z m 0 0" fill="#262133"/>
                    <path d="m 46.570312 50.308594 c 0 -0.621094 0.503907 -1.125 1.125 -1.125 h 20.226563 c 0.621094 0 1.125 0.503906 1.125 1.125 v 1.121094 c 0 0.621093 -0.503906 1.125 -1.125 1.125 h -20.226563 c -0.621093 0 -1.125 -0.503907 -1.125 -1.125 z m 0 0" fill="#d9d9d9"/>
                    <path d="m 26.632812 26.296875 c 0.3125 -0.535156 1 -0.722656 1.535157 -0.410156 l 17.515625 10.113281 c 0.539062 0.308594 0.722656 0.996094 0.414062 1.535156 l -0.5625 0.972656 c -0.308594 0.535157 -0.996094 0.722657 -1.535156 0.410157 l -17.515625 -10.113281 c -0.539063 -0.308594 -0.722656 -0.996094 -0.410156 -1.535157 z m 0 0" fill="#d9d9d9"/>
                    <path d="m 26.074219 47.648438 c -0.3125 -0.539063 -0.128907 -1.226563 0.410156 -1.535157 l 17.515625 -10.113281 c 0.539062 -0.308594 1.226562 -0.125 1.535156 0.410156 l 0.5625 0.972656 c 0.308594 0.539063 0.125 1.226563 -0.414062 1.535157 l -17.515625 10.113281 c -0.535157 0.3125 -1.222657 0.128906 -1.535157 -0.410156 z m 0 0" fill="#d9d9d9"/>
                    <path d="m 26.074219 47.648438 c -0.3125 -0.539063 -0.128907 -1.226563 0.410156 -1.535157 l 17.515625 -10.113281 c 0.539062 -0.308594 1.226562 -0.125 1.535156 0.410156 l 0.5625 0.972656 c 0.308594 0.539063 0.125 1.226563 -0.414062 1.535157 l -17.515625 10.113281 c -0.535157 0.3125 -1.222657 0.128906 -1.535157 -0.410156 z m 0 0" fill="#d9d9d9"/>
                    <path d="m 92.610111 93.342201 l 8.213794 -1.235314" fill="#d9d9d9" stroke="#d9d9d9" stroke-width="2" transform="matrix(1.685427 0 0 1.685427 -98.216488 -84.97381)"/>
                    <path d="m 104.571564 100.292869 v -5.516035" fill="none" stroke="#d9d9d9" stroke-width="2" transform="matrix(1.685427 0 0 1.685427 -98.216488 -84.97381)"/>
                    <path d="m 91.910177 96.626328 l 9.400437 5.210104" fill="#d9d9d9" stroke="#d9d9d9" stroke-width="2" transform="matrix(1.685427 0 0 1.685427 -98.216488 -84.97381)"/>
                    <path d="m 92.749171 94.000417 c 0 2.621276 -2.125296 4.748889 -4.748889 4.748889 c -2.623594 0 -4.74889 -2.127613 -4.74889 -4.748889 c 0 -2.623593 2.125296 -4.748889 4.74889 -4.748889 c 2.623593 0 4.748889 2.125296 4.748889 4.748889 z m 0 0" fill="none" stroke="#009ccd" stroke-width="2" transform="matrix(1.685427 0 0 1.685427 -98.216488 -84.97381)"/>
                    <path d="m 108.370212 90.999045 c 0 2.099801 -1.701164 3.800965 -3.798648 3.800965 c -2.099801 0 -3.800965 -1.701164 -3.800965 -3.800965 c 0 -2.097484 1.701164 -3.798648 3.800965 -3.798648 c 2.097484 0 3.798648 1.701164 3.798648 3.798648 z m 0 0" fill="none" stroke="#89e777" stroke-width="2" transform="matrix(1.685427 0 0 1.685427 -98.216488 -84.97381)"/>
                    <path d="m 109.320455 105.00004 c 0 2.623594 -2.127614 4.74889 -4.748889 4.74889 c -2.623594 0 -4.751207 -2.125296 -4.751207 -4.74889 c 0 -2.623593 2.127613 -4.748889 4.751207 -4.748889 c 2.621275 0 4.748889 2.125296 4.748889 4.748889 z m 0 0" fill="none" stroke="#fc7474" stroke-width="2" transform="matrix(1.685427 0 0 1.685427 -98.21649 -84.97381)"/>
                    <path d="m 105.570478 105.00004 c 0 0.551604 -0.447309 0.998913 -0.998912 0.998913 c -0.553922 0 -1.00123 -0.447309 -1.00123 -0.998913 c 0 -0.551603 0.447308 -0.998912 1.00123 -0.998912 c 0.551603 0 0.998912 0.447309 0.998912 0.998912 z m 0 0" fill="#d9d9d9" stroke="#d9d9d9" transform="matrix(1.685427 0 0 1.685427 -98.21649 -84.97381)"/>
                    <path d="m 44.246094 36.921875 h 2 v 1.039063 h -2 z m 0 0" fill="#d9d9d9"/>
                </g>
            </g>
        </g>
    </mask>
    <mask id="f">
        <g filter="url(#a)">
            <rect fill-opacity="0.8" height="184.32" width="184.32" x="-28.16" y="-28.16"/>
        </g>
    </mask>
    <linearGradient id="g" gradientTransform="matrix(0 0.37 -0.98462 0 295.38501 -30.360001)" gradientUnits="userSpaceOnUse" x1="300" x2="428" y1="235" y2="235">
        <stop offset="0" stop-color="#f9f06b"/>
        <stop offset="1" stop-color="#f5c211"/>
    </linearGradient>
    <clipPath id="h">
        <rect height="128" width="128"/>
    </clipPath>
    <clipPath id="i">
        <rect height="128" width="128"/>
    </clipPath>
    <path d="m 19.984375 16 h 88 c 4.417969 0 8 3.582031 8 8 v 84 c 0 4.417969 -3.582031 8 -8 8 h -88 c -4.417969 0 -8 -3.582031 -8 -8 v -84 c 0 -4.417969 3.582031 -8 8 -8 z m 0 0" fill="url(#b)"/>
    <path d="m 20 12 h 88 c 4.417969 0 8 3.582031 8 8 v 84 c 0 4.417969 -3.582031 8 -8 8 h -88 c -4.417969 0 -8 -3.582031 -8 -8 v -84 c 0 -4.417969 3.582031 -8 8 -8 z m 0 0" fill="#deddda"/>
    <path d="m 23.441406 15.988281 h 81.25 c 4.078125 0 7.386719 3.296875 7.386719 7.363281 v 77.296876 c 0 4.066406 -3.308594 7.363281 -7.386719 7.363281 h -81.25 c -4.082031 0 -7.386718 -3.296875 -7.386718 -7.363281 v -77.296876 c 0 -4.066406 3.304687 -7.363281 7.386718 -7.363281 z m 0 0" fill="#262133"/>
    <path d="m 46.570312 50.308594 c 0 -0.621094 0.503907 -1.125 1.125 -1.125 h 20.226563 c 0.621094 0 1.125 0.503906 1.125 1.125 v 1.121094 c 0 0.621093 -0.503906 1.125 -1.125 1.125 h -20.226563 c -0.621093 0 -1.125 -0.503907 -1.125 -1.125 z m 0 0" fill="#d9d9d9"/>
    <path d="m 26.632812 26.296875 c 0.3125 -0.535156 1 -0.722656 1.535157 -0.410156 l 17.515625 10.113281 c 0.539062 0.308594 0.722656 0.996094 0.414062 1.535156 l -0.5625 0.972656 c -0.308594 0.535157 -0.996094 0.722657 -1.535156 0.410157 l -17.515625 -10.113281 c -0.539063 -0.308594 -0.722656 -0.996094 -0.410156 -1.535157 z m 0 0" fill="#d9d9d9"/>
    <path d="m 26.074219 47.648438 c -0.3125 -0.539063 -0.128907 -1.226563 0.410156 -1.535157 l 17.515625 -10.113281 c 0.539062 -0.308594 1.226562 -0.125 1.535156 0.410156 l 0.5625 0.972656 c 0.308594 0.539063 0.125 1.226563 -0.414062 1.535157 l -17.515625 10.113281 c -0.535157 0.3125 -1.222657 0.128906 -1.535157 -0.410156 z m 0 0" fill="#d9d9d9"/>
    <path d="m 26.074219 47.648438 c -0.3125 -0.539063 -0.128907 -1.226563 0.410156 -1.535157 l 17.515625 -10.113281 c 0.539062 -0.308594 1.226562 -0.125 1.535156 0.410156 l 0.5625 0.972656 c 0.308594 0.539063 0.125 1.226563 -0.414062 1.535157 l -17.515625 10.113281 c -0.535157 0.3125 -1.222657 0.128906 -1.535157 -0.410156 z m 0 0" fill="#d9d9d9"/>
    <g stroke-width="3.370854">
        <path d="m 57.8710935524 72.34765580483 l 13.84375018004 -2.08203156908" fill="#d9d9d9" stroke="#d9d9d9"/>
        <path d="m 78.03124939783 84.06249932006 v -9.29687432195" fill="none" stroke="#d9d9d9"/>
        <path d="m 56.69140589058 77.88281212206 l 15.8437503316 8.78124995441" fill="#d9d9d9" stroke="#d9d9d9"/>
        <path d="m 58.10546903102 73.45703082306 c 0 4.41796934485 -3.58203126139 8.0039057406 -8.0039057406 8.0039057406 c -4.42187616464 0 -8.00390742603 -3.58593639575 -8.00390742603 -8.0039057406 c 0 -4.42187447921 3.58203126139 -8.0039057406 8.00390742603 -8.0039057406 c 4.42187447921 0 8.0039057406 3.58203126139 8.0039057406 8.0039057406 z m 0 0" fill="none" stroke="#009ccd"/>
        <path d="m 84.43359330052 68.39843741721 c 0 3.53906130003 -2.86718773703 6.40624903706 -6.4023439027 6.40624903706 c -3.53906130003 0 -6.40624903705 -2.86718773703 -6.40624903705 -6.40624903706 c 0 -3.53515616567 2.86718773703 -6.4023439027 6.40624903705 -6.4023439027 c 3.53515616567 0 6.4023439027 2.86718773703 6.4023439027 6.4023439027 z m 0 0" fill="none" stroke="#89e777"/>
        <path d="m 86.03515650929 91.99609241708 c 0 4.42187616464 -3.58593808118 8.00390742603 -8.0039057406 8.00390742603 c -4.42187616464 0 -8.00781256039 -3.58203126139 -8.00781256039 -8.00390742603 c 0 -4.42187447921 3.58593639575 -8.0039057406 8.00781256039 -8.0039057406 c 4.41796765942 0 8.0039057406 3.58203126139 8.0039057406 8.0039057406 z m 0 0" fill="none" stroke="#fc7474"/>
    </g>
    <path d="m 79.71484402411 91.99609241708 c 0 0.92968827491 -0.75390666594 1.68359494085 -1.68359325542 1.68359494085 c -0.93359509469 0 -1.68750007521 -0.75390666594 -1.68750007521 -1.68359494085 c 0 -0.92968658948 0.75390498052 -1.68359325542 1.68750007521 -1.68359325542 c 0.92968658948 0 1.68359325542 0.75390666594 1.68359325542 1.68359325542 z m 0 0" fill="#d9d9d9" stroke="#d9d9d9" stroke-width="1.685427"/>
    <path d="m 44.246094 36.921875 h 2 v 1.039063 h -2 z m 0 0" fill="#d9d9d9"/>
    <g mask="url(#e)">
        <g clip-path="url(#i)">
            <g mask="url(#f)">
                <g clip-path="url(#h)">
                    <path d="m 128 80.640625 v 47.359375 h -128 v -47.359375 z m 0 0" fill="url(#g)"/>
                    <path d="m 13.308594 80.640625 l 47.355468 47.359375 h 21.214844 l -47.359375 -47.359375 z m 42.421875 0 l 47.363281 47.359375 h 21.214844 l -47.363282 -47.359375 z m 42.429687 0 l 29.839844 29.839844 v -21.210938 l -8.628906 -8.628906 z m -98.160156 7.90625 v 21.214844 l 18.238281 18.238281 h 21.214844 z m 0 0"/>
                </g>
            </g>
        </g>
    </g>
</svg>
