<?xml version="1.0" encoding="UTF-8"?>
<svg height="128px" viewBox="0 0 128 128" width="128px" xmlns="http://www.w3.org/2000/svg" xmlns:xlink="http://www.w3.org/1999/xlink">
    <linearGradient id="a" gradientTransform="matrix(0.232143 0 0 0.328947 -8.58254 263.826965)" gradientUnits="userSpaceOnUse" x1="88.595886" x2="536.595886" y1="-449.394012" y2="-449.394012">
        <stop offset="0" stop-color="#77767b"/>
        <stop offset="0.0384615" stop-color="#c0bfbc"/>
        <stop offset="0.0768555" stop-color="#9a9996"/>
        <stop offset="0.923077" stop-color="#9a9996"/>
        <stop offset="0.961538" stop-color="#c0bfbc"/>
        <stop offset="1" stop-color="#77767b"/>
    </linearGradient>
    <linearGradient id="b" gradientUnits="userSpaceOnUse" x1="108.252083" x2="83.944199" y1="90.550278" y2="104.584442">
        <stop offset="0" stop-color="#89e777"/>
        <stop offset="0.5" stop-color="#fc7474"/>
        <stop offset="0.852788" stop-color="#009ccd"/>
    </linearGradient>
    <linearGradient id="c" gradientUnits="userSpaceOnUse" x1="108.252083" x2="83.944199" y1="90.550278" y2="104.584442">
        <stop offset="0" stop-color="#89e777"/>
        <stop offset="0.5" stop-color="#fc7474"/>
        <stop offset="0.852229" stop-color="#009ccd"/>
    </linearGradient>
    <path d="m 19.984375 16 h 88 c 4.417969 0 8 3.582031 8 8 v 84 c 0 4.417969 -3.582031 8 -8 8 h -88 c -4.417969 0 -8 -3.582031 -8 -8 v -84 c 0 -4.417969 3.582031 -8 8 -8 z m 0 0" fill="url(#a)"/>
    <path d="m 20 12 h 88 c 4.417969 0 8 3.582031 8 8 v 84 c 0 4.417969 -3.582031 8 -8 8 h -88 c -4.417969 0 -8 -3.582031 -8 -8 v -84 c 0 -4.417969 3.582031 -8 8 -8 z m 0 0" fill="#deddda"/>
    <path d="m 23.441406 15.988281 h 81.25 c 4.078125 0 7.386719 3.296875 7.386719 7.363281 v 77.296876 c 0 4.066406 -3.308594 7.363281 -7.386719 7.363281 h -81.25 c -4.082031 0 -7.386718 -3.296875 -7.386718 -7.363281 v -77.296876 c 0 -4.066406 3.304687 -7.363281 7.386718 -7.363281 z m 0 0" fill="#262133"/>
    <path d="m 46.570312 50.308594 c 0 -0.621094 0.503907 -1.125 1.125 -1.125 h 20.226563 c 0.621094 0 1.125 0.503906 1.125 1.125 v 1.121094 c 0 0.621093 -0.503906 1.125 -1.125 1.125 h -20.226563 c -0.621093 0 -1.125 -0.503907 -1.125 -1.125 z m 0 0" fill="#d9d9d9"/>
    <path d="m 26.632812 26.296875 c 0.3125 -0.535156 1 -0.722656 1.535157 -0.410156 l 17.515625 10.113281 c 0.539062 0.308594 0.722656 0.996094 0.414062 1.535156 l -0.5625 0.972656 c -0.308594 0.535157 -0.996094 0.722657 -1.535156 0.410157 l -17.515625 -10.113281 c -0.539063 -0.308594 -0.722656 -0.996094 -0.410156 -1.535157 z m 0 0" fill="#d9d9d9"/>
    <path d="m 26.074219 47.648438 c -0.3125 -0.539063 -0.128907 -1.226563 0.410156 -1.535157 l 17.515625 -10.113281 c 0.539062 -0.308594 1.226562 -0.125 1.535156 0.410156 l 0.5625 0.972656 c 0.308594 0.539063 0.125 1.226563 -0.414062 1.535157 l -17.515625 10.113281 c -0.535157 0.3125 -1.222657 0.128906 -1.535157 -0.410156 z m 0 0" fill="#d9d9d9"/>
    <path d="m 26.074219 47.648438 c -0.3125 -0.539063 -0.128907 -1.226563 0.410156 -1.535157 l 17.515625 -10.113281 c 0.539062 -0.308594 1.226562 -0.125 1.535156 0.410156 l 0.5625 0.972656 c 0.308594 0.539063 0.125 1.226563 -0.414062 1.535157 l -17.515625 10.113281 c -0.535157 0.3125 -1.222657 0.128906 -1.535157 -0.410156 z m 0 0" fill="#d9d9d9"/>
    <g stroke="url(#c)">
        <path d="m 92.61012 93.342208 l 8.213793 -1.235314" fill="url(#b)" stroke-width="2" transform="matrix(1.685427 0 0 1.685427 -98.216509 -84.973827)"/>
        <path d="m 104.571572 100.292875 v -5.516035" fill="none" stroke-width="2" transform="matrix(1.685427 0 0 1.685427 -98.216509 -84.973827)"/>
        <path d="m 91.910186 96.626334 l 9.400436 5.210104" fill="url(#b)" stroke-width="2" transform="matrix(1.685427 0 0 1.685427 -98.216509 -84.973827)"/>
        <path d="m 92.749179 94.000423 c 0 2.621276 -2.125296 4.74889 -4.748889 4.74889 s -4.748889 -2.127614 -4.748889 -4.74889 c 0 -2.623593 2.125296 -4.748889 4.748889 -4.748889 s 4.748889 2.125296 4.748889 4.748889 z m 0 0" fill="none" stroke-width="1.99987" transform="matrix(1.685427 0 0 1.685427 -98.216509 -84.973827)"/>
        <path d="m 108.37022 90.999051 c 0 2.099802 -1.701164 3.800966 -3.798648 3.800966 c -2.099801 0 -3.800965 -1.701164 -3.800965 -3.800966 c 0 -2.097484 1.701164 -3.798647 3.800965 -3.798647 c 2.097484 0 3.798648 1.701163 3.798648 3.798647 z m 0 0" fill="none" stroke-width="2" transform="matrix(1.685427 0 0 1.685427 -98.216509 -84.973827)"/>
        <path d="m 109.320463 105.000047 c 0 2.623593 -2.127614 4.748889 -4.748889 4.748889 c -2.623594 0 -4.751207 -2.125296 -4.751207 -4.748889 c 0 -2.623594 2.127613 -4.74889 4.751207 -4.74889 c 2.621275 0 4.748889 2.125296 4.748889 4.74889 z m 0 0" fill="none" stroke-width="2" transform="matrix(1.685427 0 0 1.685427 -98.216511 -84.973827)"/>
        <path d="m 105.570486 105.000047 c 0 0.551603 -0.447309 0.998912 -0.998912 0.998912 c -0.553922 0 -1.00123 -0.447309 -1.00123 -0.998912 c 0 -0.551604 0.447308 -0.998913 1.00123 -0.998913 c 0.551603 0 0.998912 0.447309 0.998912 0.998913 z m 0 0" fill="url(#b)" transform="matrix(1.685427 0 0 1.685427 -98.216511 -84.973827)"/>
    </g>
    <path d="m 44.246094 36.921875 h 2 v 1.039063 h -2 z m 0 0" fill="#d9d9d9"/>
</svg>
